<svg id="Layer_1" data-name="Layer 1" xmlns="http://www.w3.org/2000/svg" viewBox="0 0 253.54 58.24"><defs><style>.cls-1{fill:#b58c18;}.cls-2{fill:none;stroke:#299bd2;stroke-linecap:round;stroke-linejoin:round;stroke-width:0.28px;stroke-dasharray:0.92 0.92;}</style></defs><title>logo</title><path d="M16.11,51.3,17,49.88l-.07,0a.64.64,0,0,0-.6-.09,1.58,1.58,0,0,0-.57.5l-.09-.06,1.1-1.82.1.06a1.81,1.81,0,0,0-.17.57.67.67,0,0,0,.08.39.94.94,0,0,0,.34.3l.6-1a2.09,2.09,0,0,0,.19-.37.3.3,0,0,0,0-.16.54.54,0,0,0-.19-.17l-.21-.13a1.46,1.46,0,0,0-.92-.25,1.48,1.48,0,0,0-.84.43l-.1-.05.83-1,3,1.83-.06.1-.11-.07a.68.68,0,0,0-.28-.1.27.27,0,0,0-.18.07,1.28,1.28,0,0,0-.22.3l-1.39,2.29a3.43,3.43,0,0,0-.17.3.34.34,0,0,0,0,.2.63.63,0,0,0,.23.23l.11.07-.05.09L14.4,50.53l.63-1,.1.06a1.31,1.31,0,0,0-.12.67.87.87,0,0,0,.23.47,2.51,2.51,0,0,0,.51.38Z"/><path d="M12.32,48.58l1.11-1.26-.09-.08A1.16,1.16,0,0,0,13,47a.69.69,0,0,0-.4,0,1.38,1.38,0,0,0-.46.28L12,47.24l1.34-1.53.08.07a1.08,1.08,0,0,0-.27.78,1,1,0,0,0,.31.51l.09.08.82-.94a1.4,1.4,0,0,0,.24-.31.32.32,0,0,0,0-.19.54.54,0,0,0-.16-.23l-.1-.09.07-.08,1.6,1.4L16,46.8l-.1-.09a.52.52,0,0,0-.26-.14.22.22,0,0,0-.19,0,1.36,1.36,0,0,0-.27.26l-1.77,2a1.89,1.89,0,0,0-.23.32.32.32,0,0,0,0,.19.55.55,0,0,0,.17.22l.1.09-.07.09-2.59-2.27.77-.88.09.08a1.11,1.11,0,0,0-.24.6.93.93,0,0,0,.2.54,3.19,3.19,0,0,0,.47.48Z"/><path d="M11.82,42.71l.08-.07,1.4,1.61-.08.07-.09-.1a.51.51,0,0,0-.24-.17.31.31,0,0,0-.19,0,1.43,1.43,0,0,0-.3.22l-2,1.76a1.94,1.94,0,0,0-.27.28.39.39,0,0,0,0,.19.5.5,0,0,0,.14.24l.09.11-.09.07L8.83,45.31l.08-.07.09.1a.54.54,0,0,0,.23.17.21.21,0,0,0,.19,0,1.11,1.11,0,0,0,.31-.22l2-1.76a1.52,1.52,0,0,0,.27-.28.3.3,0,0,0,0-.19.48.48,0,0,0-.13-.24Z"/><path d="M8.3,41.82l.77-2.16a2.31,2.31,0,0,0,.16-.72.59.59,0,0,0-.1-.34l.1-.06,1.12,1.81-.1,0c-.08-.1-.14-.17-.19-.18a.1.1,0,0,0-.12,0,1,1,0,0,0-.26.48l-.5,1.41.18.07,1-.59a1.06,1.06,0,0,0,.31-.24.24.24,0,0,0,0-.19.64.64,0,0,0-.12-.31l.09-.06,1.09,1.75-.1.06-.07-.12a.58.58,0,0,0-.2-.21.39.39,0,0,0-.19,0,1.39,1.39,0,0,0-.34.17L8.55,43.85a1.45,1.45,0,0,0-.32.23.36.36,0,0,0,0,.19.54.54,0,0,0,.09.26l.07.11-.09.06L7.19,43l.09-.06a.75.75,0,0,0,.22.24.27.27,0,0,0,.18,0A1.25,1.25,0,0,0,8,43l1.08-.67-1.84-.63c-.25-.09-.43-.11-.51-.06a.2.2,0,0,0-.09.21,1.12,1.12,0,0,0,.14.3l-.09.06-.84-1.35L6,40.81a.68.68,0,0,0,.24.24,4.23,4.23,0,0,0,.65.26Z"/><path d="M4.38,37l1.87-2.63-1.69.49a.83.83,0,0,0-.44.24.55.55,0,0,0,0,.51l-.11,0-.37-1.29.11,0a.91.91,0,0,0,.17.31.4.4,0,0,0,.21.08,1.19,1.19,0,0,0,.4-.06l3.26-.95,0,.1-2.5,3.59,2.49-.72a.56.56,0,0,0,.41-.28.58.58,0,0,0,0-.39l0-.1.11,0,.4,1.39-.11,0a.65.65,0,0,0-.26-.41.65.65,0,0,0-.48,0l-2.76.8L5,37.76a.79.79,0,0,0-.14.28.76.76,0,0,0,0,.29l-.1,0Z"/><path d="M6.14,30.71l.12,1.44.41.14a.85.85,0,0,0,.33.05.28.28,0,0,0,.24-.16,1.09,1.09,0,0,0,0-.4h.11l.11,1.35H7.39a.55.55,0,0,0-.21-.34,2.26,2.26,0,0,0-.64-.3L3.18,31.31v-.06l3.21-1.74A2.58,2.58,0,0,0,7,29.12a.56.56,0,0,0,.08-.3h.11l.17,2H7.19V30.7a.63.63,0,0,0-.1-.32A.14.14,0,0,0,7,30.32l-.11,0-.22.11Zm-.22.13-1.34.72,1.45.5Z"/><path d="M3.42,25.08l1.1.09v.11a1.69,1.69,0,0,0-.57.17.8.8,0,0,0-.29.29,1.25,1.25,0,0,0-.09.4l0,.3,3.13.27h.39a.3.3,0,0,0,.15-.13.58.58,0,0,0,.08-.27v-.13h.11l-.18,2.12H7.12v-.13a.51.51,0,0,0,0-.29A.25.25,0,0,0,7,27.74a1.65,1.65,0,0,0-.37-.06l-3.13-.27,0,.3a.92.92,0,0,0,.12.61,1.19,1.19,0,0,0,.67.38v.12l-1.1-.09Z"/><path d="M8,23.08l.11,0-.49,2.07-.11,0,0-.14a.58.58,0,0,0,0-.29.27.27,0,0,0-.11-.15A1.7,1.7,0,0,0,7,24.46l-2.61-.61A1.49,1.49,0,0,0,4,23.8a.31.31,0,0,0-.17.1.58.58,0,0,0-.12.25l0,.13-.1,0,.48-2.07.11,0,0,.14a.58.58,0,0,0,0,.29.29.29,0,0,0,.12.15,1.38,1.38,0,0,0,.36.12l2.61.61a1.27,1.27,0,0,0,.39.06.38.38,0,0,0,.16-.11.58.58,0,0,0,.12-.25Z"/><path d="M5.06,19.25A2,2,0,0,1,6.18,18a2.05,2.05,0,0,1,1.63,0A2.19,2.19,0,0,1,8.9,19,2,2,0,0,1,9,20.83,2.08,2.08,0,0,1,6.17,22,2,2,0,0,1,5,20.87,2,2,0,0,1,5.06,19.25Zm.19,0a.94.94,0,0,0,.2,1A3.13,3.13,0,0,0,6.61,21a2.63,2.63,0,0,0,1.56.25.86.86,0,0,0,.6-.53.93.93,0,0,0,.05-.54,1.18,1.18,0,0,0-.41-.61,3.47,3.47,0,0,0-1-.56,3.84,3.84,0,0,0-1.17-.32,1.17,1.17,0,0,0-.67.14A.89.89,0,0,0,5.25,19.29Z"/><path d="M7.23,15.17l3.22-.25L9,13.94a.8.8,0,0,0-.47-.19.59.59,0,0,0-.41.31L8,14l.76-1.11.09.06a1.27,1.27,0,0,0-.13.34.37.37,0,0,0,.07.21,1.29,1.29,0,0,0,.31.27l2.81,1.9-.06.08-4.35.38,2.14,1.45a.59.59,0,0,0,.48.14.61.61,0,0,0,.31-.24l.06-.08.09.06-.81,1.2-.09-.06a.64.64,0,0,0,.14-.47.6.6,0,0,0-.3-.36L7.17,16.14H7a1.31,1.31,0,0,0-.31.07.81.81,0,0,0-.2.21l-.1-.06Z"/><path d="M13.16,12.52l-1,1,.16.4a.85.85,0,0,0,.17.29.27.27,0,0,0,.28.08,1,1,0,0,0,.33-.23l.08.08-1,1L12.12,15a.63.63,0,0,0,.13-.39,2.89,2.89,0,0,0-.19-.68l-1.25-3.33,0,0,3.39,1.34a2.13,2.13,0,0,0,.67.18.45.45,0,0,0,.28-.13l.08.08-1.4,1.39-.08-.08.06-.06A.66.66,0,0,0,14,13a.16.16,0,0,0,0-.14l-.09-.07-.22-.1Zm-.22-.09-1.42-.57.54,1.44Z"/><path d="M17.66,8.75,18.33,10l-3,2L15.27,12l.11-.08a.49.49,0,0,0,.2-.21.24.24,0,0,0,0-.19,1.41,1.41,0,0,0-.18-.33l-1.5-2.22a1.28,1.28,0,0,0-.24-.31.36.36,0,0,0-.19,0,.56.56,0,0,0-.26.11l-.11.07-.06-.09,1.8-1.21.06.09-.15.1a.57.57,0,0,0-.2.21.3.3,0,0,0,0,.19,1.41,1.41,0,0,0,.18.33l1.45,2.15a1,1,0,0,0,.26.31.19.19,0,0,0,.18,0,1.1,1.1,0,0,0,.32-.18l.28-.19a1.14,1.14,0,0,0,.39-.4,1.12,1.12,0,0,0,.11-.5,3.19,3.19,0,0,0-.16-.77Z"/><path d="M21.29,7.45,20,8l0,.43a.84.84,0,0,0,0,.34.28.28,0,0,0,.22.19,1.25,1.25,0,0,0,.4-.08l0,.11-1.27.48,0-.11a.63.63,0,0,0,.28-.3,2.41,2.41,0,0,0,.11-.69l.21-3.56.05,0,2.56,2.6a2.11,2.11,0,0,0,.53.44.54.54,0,0,0,.31,0l0,.1-1.84.7,0-.1.07,0a.65.65,0,0,0,.29-.18.14.14,0,0,0,0-.15.31.31,0,0,0-.05-.1l-.17-.18Zm-.17-.17-1.07-1.1L20,7.72Z"/><path d="M25.44,3.31l.28,1.33-.12,0A1.45,1.45,0,0,0,25,3.93a1.1,1.1,0,0,0-.79-.16A.63.63,0,0,0,23.8,4a.51.51,0,0,0-.11.4.42.42,0,0,0,.11.22.91.91,0,0,0,.32.23c.11,0,.34.12.71.22a2.93,2.93,0,0,1,1.07.47,1.17,1.17,0,0,1,.38.66,1.19,1.19,0,0,1-.23.94,1.48,1.48,0,0,1-.93.55,2.19,2.19,0,0,1-.36,0,3.35,3.35,0,0,1-.45-.07.72.72,0,0,0-.25,0,.3.3,0,0,0-.15.09.42.42,0,0,0-.1.2L23.7,8l-.29-1.51.11,0a1.8,1.8,0,0,0,.69.88,1.14,1.14,0,0,0,.86.18.73.73,0,0,0,.49-.28.54.54,0,0,0,.12-.45.53.53,0,0,0-.13-.26,1,1,0,0,0-.27-.21,3.67,3.67,0,0,0-.61-.21,4.54,4.54,0,0,1-.87-.31,1.6,1.6,0,0,1-.45-.35,1,1,0,0,1-.22-.49,1.08,1.08,0,0,1,.2-.88,1.24,1.24,0,0,1,.82-.51,1.7,1.7,0,0,1,.39,0,2.45,2.45,0,0,1,.36.07.76.76,0,0,0,.3,0,.16.16,0,0,0,.11-.07.81.81,0,0,0,0-.24Z"/><path d="M29.38,3.05l.08,1.36h-.12a1.4,1.4,0,0,0-.46-.8,1.1,1.1,0,0,0-.75-.29.74.74,0,0,0-.48.18.5.5,0,0,0-.16.38.38.38,0,0,0,.07.24,1.1,1.1,0,0,0,.29.27,4.69,4.69,0,0,0,.66.33,3.12,3.12,0,0,1,1,.63,1.14,1.14,0,0,1,.27.71A1.16,1.16,0,0,1,29.4,7,1.67,1.67,0,0,1,28,7.33a3.53,3.53,0,0,1-.44-.14.8.8,0,0,0-.23-.05.31.31,0,0,0-.17.07.4.4,0,0,0-.13.19H27L26.9,5.86H27a1.81,1.81,0,0,0,.55,1,1.17,1.17,0,0,0,.82.31.75.75,0,0,0,.53-.2.59.59,0,0,0,.19-.43A.71.71,0,0,0,29,6.23.94.94,0,0,0,28.77,6a4.41,4.41,0,0,0-.57-.3,4.69,4.69,0,0,1-.81-.43A1.4,1.4,0,0,1,27,4.83a1.13,1.13,0,0,1,.18-1.36,1.27,1.27,0,0,1,.89-.37,1.29,1.29,0,0,1,.39,0,1.76,1.76,0,0,1,.34.12.94.94,0,0,0,.29.09.17.17,0,0,0,.12,0,.48.48,0,0,0,.08-.23Z"/><path d="M32.91,3.39a2.08,2.08,0,0,1,1.49.79,2.1,2.1,0,0,1,.38,1.59,2.22,2.22,0,0,1-.65,1.28,2,2,0,0,1-1.79.52,2.05,2.05,0,0,1-1.58-1,2.19,2.19,0,0,1-.26-1.45,2,2,0,0,1,.83-1.41A2,2,0,0,1,32.91,3.39Zm0,.2A.89.89,0,0,0,32,4a2.82,2.82,0,0,0-.43,1.29A2.58,2.58,0,0,0,31.7,6.9a.83.83,0,0,0,.66.45.84.84,0,0,0,.53-.07,1.23,1.23,0,0,0,.5-.55,3.43,3.43,0,0,0,.31-1.07,3.87,3.87,0,0,0,0-1.22,1.2,1.2,0,0,0-.29-.61A.93.93,0,0,0,32.92,3.59Z"/><path d="M39.84,5.31l-.49,1.33-.11,0a1.53,1.53,0,0,0-.17-1,1.27,1.27,0,0,0-.67-.56A1.27,1.27,0,0,0,37,5.42a2.49,2.49,0,0,0-.53.88,3.32,3.32,0,0,0-.21,1,1.32,1.32,0,0,0,.17.79,1.2,1.2,0,0,0,.64.48,1.49,1.49,0,0,0,.72.08,2.32,2.32,0,0,0,.83-.31l-.12.33a2.44,2.44,0,0,1-.85.24,2,2,0,0,1-.87-.15,2.5,2.5,0,0,1-1-.64,1.91,1.91,0,0,1-.47-1,2.05,2.05,0,0,1,.1-1.07,2.18,2.18,0,0,1,.67-.93,2.11,2.11,0,0,1,1.05-.48,2.17,2.17,0,0,1,1.13.11,2.5,2.5,0,0,1,.79.49,1.88,1.88,0,0,0,.29.22.23.23,0,0,0,.18,0,.43.43,0,0,0,.17-.18Z"/><path d="M40.63,10.36l-.05.1-1.87-1,.06-.09.12.06a.45.45,0,0,0,.28.08.32.32,0,0,0,.17-.06,1.68,1.68,0,0,0,.21-.32l1.3-2.35A1.62,1.62,0,0,0,41,6.4a.36.36,0,0,0,0-.19A.55.55,0,0,0,40.75,6L40.63,6l0-.09,1.87,1L42.49,7l-.12-.06a.45.45,0,0,0-.28-.08.24.24,0,0,0-.17.06,1.06,1.06,0,0,0-.22.32L40.41,9.57a1.84,1.84,0,0,0-.16.36.36.36,0,0,0,0,.19.65.65,0,0,0,.21.18Z"/><path d="M43.41,11.06l-1.14-.88-.38.21a1.05,1.05,0,0,0-.27.21.3.3,0,0,0,0,.29,1.33,1.33,0,0,0,.27.3l-.06.09-1.08-.83.07-.09a.63.63,0,0,0,.4.08,2.6,2.6,0,0,0,.65-.28L45,8.47l0,0-.87,3.54a1.69,1.69,0,0,0-.09.69.43.43,0,0,0,.16.26l-.07.09-1.56-1.2.07-.09.06,0A.81.81,0,0,0,43,12a.16.16,0,0,0,.14-.07.31.31,0,0,0,.05-.1s0-.1.07-.23Zm.05-.24.38-1.48-1.35.73Z"/><path d="M49.4,12.85l-.81.75-.07-.08a1.92,1.92,0,0,0,.26-.53.77.77,0,0,0,0-.42.93.93,0,0,0-.23-.33l-.2-.22L46,14.16a1.08,1.08,0,0,0-.26.29.3.3,0,0,0,0,.19.61.61,0,0,0,.14.24L46,15l-.08.07-1.45-1.56.09-.08.09.1a.59.59,0,0,0,.24.17.25.25,0,0,0,.19,0,1.27,1.27,0,0,0,.3-.23l2.3-2.14-.2-.21a.83.83,0,0,0-.53-.32,1.12,1.12,0,0,0-.73.23l-.08-.09.81-.75Z"/><path d="M47.83,17.54l-.09.06-1.21-1.75.09-.06.08.11a.65.65,0,0,0,.21.2.31.31,0,0,0,.19,0,1.41,1.41,0,0,0,.33-.18l2.21-1.52a1.64,1.64,0,0,0,.3-.25A.36.36,0,0,0,50,14a.56.56,0,0,0-.11-.26l-.08-.11.1-.06,1.2,1.75-.09.06-.07-.11a.68.68,0,0,0-.22-.2.37.37,0,0,0-.19,0,1.64,1.64,0,0,0-.33.19L48,16.73a1.3,1.3,0,0,0-.3.25.28.28,0,0,0,0,.19.56.56,0,0,0,.11.26Z"/><path d="M52.61,18a2,2,0,0,1,.17,1.67,2.06,2.06,0,0,1-1.1,1.2,2.16,2.16,0,0,1-1.43.17,2,2,0,0,1-1.43-1.2A2,2,0,0,1,48.76,18a2.13,2.13,0,0,1,1.06-1,2,2,0,0,1,1.63-.09A1.93,1.93,0,0,1,52.61,18Zm-.15.11a.91.91,0,0,0-.88-.52,3.05,3.05,0,0,0-1.32.36,2.67,2.67,0,0,0-1.24,1,.84.84,0,0,0,0,.8.77.77,0,0,0,.35.4,1.21,1.21,0,0,0,.73.11,3.46,3.46,0,0,0,1.06-.34,3.75,3.75,0,0,0,1-.65,1.29,1.29,0,0,0,.35-.59A1,1,0,0,0,52.46,18.09Z"/><path d="M54.17,22.32l-2,2.55,1.7-.41a.85.85,0,0,0,.46-.22.57.57,0,0,0,0-.51l.11,0L54.83,25l-.11,0a.88.88,0,0,0-.17-.32.31.31,0,0,0-.2-.09,1.05,1.05,0,0,0-.4,0l-3.3.81,0-.1,2.64-3.48-2.51.61a.56.56,0,0,0-.43.27.62.62,0,0,0,0,.38l0,.1-.11,0-.34-1.4.11,0a.7.7,0,0,0,.25.43.65.65,0,0,0,.47,0l2.8-.68.08-.11a.52.52,0,0,0,.14-.57l.11,0Z"/><path d="M51.12,29.82H51l0-2.13h.11v.14a.58.58,0,0,0,.06.28.31.31,0,0,0,.15.12,1.18,1.18,0,0,0,.38,0l2.68,0a1.29,1.29,0,0,0,.39,0,.27.27,0,0,0,.13-.13.55.55,0,0,0,.06-.28v-.13h.12l0,2.13H55v-.14a.55.55,0,0,0-.07-.28.31.31,0,0,0-.15-.12,1.3,1.3,0,0,0-.38,0l-2.67,0a1.78,1.78,0,0,0-.39,0,.32.32,0,0,0-.14.14.45.45,0,0,0-.05.27Z"/><path d="M54.92,31.94l-2.77,1.65,1.74.23a.83.83,0,0,0,.5,0,.57.57,0,0,0,.23-.46h.11l-.18,1.34-.11,0a.94.94,0,0,0,0-.35.26.26,0,0,0-.15-.16,1,1,0,0,0-.39-.11l-3.36-.45v-.1l3.73-2.28-2.57-.35a.56.56,0,0,0-.49.1.61.61,0,0,0-.17.35v.09h-.11L51.08,30h.11a.52.52,0,0,0,.51.68l2.85.38.12-.07a.74.74,0,0,0,.24-.2.57.57,0,0,0,.1-.27h.11Z"/><path d="M53.12,39.4l-1.33-.46,0-.11a1.6,1.6,0,0,0,1-.19,1.29,1.29,0,0,0,.54-.68,1.21,1.21,0,0,0,0-.73A1.3,1.3,0,0,0,53,36.6a2.5,2.5,0,0,0-.89-.51,3.27,3.27,0,0,0-1-.19,1.37,1.37,0,0,0-.78.18,1.25,1.25,0,0,0-.47.65,1.61,1.61,0,0,0-.07.72,2.63,2.63,0,0,0,.33.83l-.33-.12a2.2,2.2,0,0,1-.26-.84,2.3,2.3,0,0,1,.13-.87,2.52,2.52,0,0,1,.63-1,1.9,1.9,0,0,1,1-.5A2.2,2.2,0,0,1,52.3,35a2,2,0,0,1,.94.65,2.07,2.07,0,0,1,.5,1,2.16,2.16,0,0,1-.09,1.13,2.47,2.47,0,0,1-.47.8A1.43,1.43,0,0,0,53,39a.23.23,0,0,0,0,.18.41.41,0,0,0,.18.16Z"/><path d="M47.91,38l.12.06a1,1,0,0,0,.12.62.78.78,0,0,0,.36.36.13.13,0,0,0,.08,0s0,0,0,0a.07.07,0,0,0,0,0,.43.43,0,0,1,.31-.43.43.43,0,0,1,.35,0,.44.44,0,0,1,.24.29.45.45,0,0,1,0,.39.56.56,0,0,1-.37.3.77.77,0,0,1-.58-.08A1.24,1.24,0,0,1,48,39,1.51,1.51,0,0,1,47.91,38Z"/><path d="M50.75,43.58l-1.3,1.65-.09-.07.07-.08a.86.86,0,0,0,.16-.29.27.27,0,0,0,0-.18,1.35,1.35,0,0,0-.32-.3l-1.56-1.24a2,2,0,0,0-.62-.39.69.69,0,0,0-.4,0,.92.92,0,0,0-.39.31,1.08,1.08,0,0,0-.23.53,1,1,0,0,0,.1.53,2.57,2.57,0,0,0,.65.65l1.3,1a.92.92,0,0,0,.34.19.33.33,0,0,0,.22,0,.84.84,0,0,0,.29-.26l.08.07-.87,1.11-.09-.07,0-.07a.49.49,0,0,0,.13-.26.4.4,0,0,0-.06-.26,1.41,1.41,0,0,0-.25-.25l-1.21-1a3.25,3.25,0,0,1-.75-.72,1.14,1.14,0,0,1-.18-.72,1.67,1.67,0,0,1,.41-1,1.86,1.86,0,0,1,.62-.55,1.18,1.18,0,0,1,.73-.13,1.71,1.71,0,0,1,.74.37l1.56,1.24a1.14,1.14,0,0,0,.37.24.26.26,0,0,0,.19,0,.81.81,0,0,0,.26-.25Z"/><path d="M45.55,49.34l-.93-1,.1-.08a1.47,1.47,0,0,0,.86.33,1.13,1.13,0,0,0,.76-.26.69.69,0,0,0,.25-.45.5.5,0,0,0-.11-.4.49.49,0,0,0-.21-.14,1.26,1.26,0,0,0-.4,0c-.11,0-.35.07-.72.17a2.84,2.84,0,0,1-1.16.15,1.15,1.15,0,0,1-.94-1.29,1.39,1.39,0,0,1,.51-1,1.94,1.94,0,0,1,.29-.21,2.18,2.18,0,0,1,.42-.18.64.64,0,0,0,.22-.11.31.31,0,0,0,.08-.15.5.5,0,0,0,0-.24l.08-.07,1,1.15-.08.07a1.79,1.79,0,0,0-1-.4,1.2,1.2,0,0,0-.83.29.76.76,0,0,0-.28.49.54.54,0,0,0,.13.45.51.51,0,0,0,.25.16.88.88,0,0,0,.34,0,3.42,3.42,0,0,0,.62-.13,4.75,4.75,0,0,1,.91-.19,1.49,1.49,0,0,1,.57.07A1.17,1.17,0,0,1,47,47.61a1.28,1.28,0,0,1-.45.86,1.4,1.4,0,0,1-.32.22,2,2,0,0,1-.34.13.91.91,0,0,0-.28.11.17.17,0,0,0-.06.12.57.57,0,0,0,.09.23Z"/><path d="M40.93,48.89l1.22-.76-.06-.42a.81.81,0,0,0-.1-.33.29.29,0,0,0-.25-.14,1.14,1.14,0,0,0-.38.15l-.06-.09,1.15-.72.06.1a.61.61,0,0,0-.21.34,2.63,2.63,0,0,0,0,.71l.47,3.53,0,0-3-2.07a2.53,2.53,0,0,0-.61-.33.58.58,0,0,0-.3.06l-.06-.09,1.67-1,.06.1-.07,0a.71.71,0,0,0-.25.23.16.16,0,0,0,0,.15l.07.09.2.14Zm.21.14,1.25.87-.21-1.52Z"/><path class="cls-1" d="M29.12,58.24A29.12,29.12,0,1,1,58.24,29.12,29.16,29.16,0,0,1,29.12,58.24Zm0-57.62a28.5,28.5,0,1,0,28.5,28.5A28.53,28.53,0,0,0,29.12.62Z"/><circle class="cls-2" cx="29.12" cy="29.12" r="20.01"/><path d="M30.06,30.94a3.14,3.14,0,0,0,4.3,1.16,2.25,2.25,0,0,0,1.08-2.74v0a.15.15,0,0,1,.14-.2h3.26c.59,0,.46.34.46.34L35.62,32.7a4.58,4.58,0,0,1-3,1.18c-3.75,0-4.86-4.65-4.86-4.65-.6-2.43.16-3.89,1.08-4.74a4.33,4.33,0,0,1,2.92-1.08h5.11a.15.15,0,0,1,.1.27l-2.59,2.21a.16.16,0,0,1-.25-.07A2,2,0,0,0,32,24.33a3.31,3.31,0,0,0-2.28,1.08A2.6,2.6,0,0,0,29,27.17,7.24,7.24,0,0,0,30.06,30.94Z"/><path d="M29,30.94A3.15,3.15,0,0,1,24.7,32.1a2.25,2.25,0,0,1-1.08-2.74v0a.14.14,0,0,0-.14-.2H20.22c-.58,0-.46.34-.46.34l3.68,3.22a4.6,4.6,0,0,0,3,1.18c3.75,0,4.86-4.65,4.86-4.65.61-2.43-.16-3.89-1.08-4.74a4.33,4.33,0,0,0-2.92-1.08H22.15a.15.15,0,0,0-.1.27l2.6,2.21a.15.15,0,0,0,.24-.07,2,2,0,0,1,2.19-1.49,3.31,3.31,0,0,1,2.27,1.08,2.6,2.6,0,0,1,.71,1.76A7.29,7.29,0,0,1,29,30.94Z"/><path d="M29.6,27.12c-.88,0-5.32.17-5.79,4.58v0a13,13,0,0,0,2.39,6.51.16.16,0,0,0,.26,0,8.39,8.39,0,0,0,1.23-3.42.15.15,0,0,0-.19-.17c-.57.16-2,.29-2.35-2.58v0c0-.24.22-3.49,4.3-3.39h.3c4.09-.1,4.29,3.15,4.3,3.39v0c-.34,2.87-1.78,2.74-2.34,2.58a.16.16,0,0,0-.2.17,8.39,8.39,0,0,0,1.23,3.42.16.16,0,0,0,.26,0,13,13,0,0,0,2.39-6.51v0C34.92,27.29,30.48,27.12,29.6,27.12Z"/><polygon class="cls-1" points="29.12 51.18 29.68 52.31 30.93 52.49 30.02 53.38 30.24 54.62 29.12 54.03 28 54.62 28.21 53.38 27.31 52.49 28.56 52.31 29.12 51.18"/><path d="M23.89,20.59v.72h0a.28.28,0,0,0,.25-.11.6.6,0,0,0,.09-.31h0v.93h0a.7.7,0,0,0-.06-.25.22.22,0,0,0-.12-.13.45.45,0,0,0-.19,0v.5a.67.67,0,0,0,0,.18.08.08,0,0,0,.05.05.16.16,0,0,0,.11,0h.1a.57.57,0,0,0,.61-.47h.05l-.08.56H23.21v0h.06a.25.25,0,0,0,.13,0,.15.15,0,0,0,.05-.06.67.67,0,0,0,0-.17V20.64a.18.18,0,0,0-.05-.07.26.26,0,0,0-.14,0h-.06v0h1.48V21h0a.85.85,0,0,0-.11-.28.52.52,0,0,0-.19-.12,1,1,0,0,0-.28,0Z"/><path d="M25.91,21l0,.42h0a.72.72,0,0,0-.17-.26.27.27,0,0,0-.17-.06.16.16,0,0,0-.09,0s0,.05,0,.08a.09.09,0,0,0,0,.07,1.48,1.48,0,0,0,.23.19,1,1,0,0,1,.26.22.34.34,0,0,1,.06.2.49.49,0,0,1-.05.2.54.54,0,0,1-.15.15.46.46,0,0,1-.2.05.93.93,0,0,1-.24-.05l-.05,0s0,0-.07.07h0l0-.44h0a.61.61,0,0,0,.16.26.34.34,0,0,0,.19.08.14.14,0,0,0,.11,0,.13.13,0,0,0,0-.09.21.21,0,0,0,0-.11l-.18-.14a1.4,1.4,0,0,1-.26-.21.4.4,0,0,1-.08-.23.41.41,0,0,1,.09-.26.38.38,0,0,1,.29-.11.34.34,0,0,1,.19.05l.05,0h0l.05-.06Z"/><path d="M26.77,20.59V21h.29v.13h-.29v.76c0,.07,0,.11,0,.13a.1.1,0,0,0,0,.05l0,0c.06,0,.11,0,.16-.13l0,0a.35.35,0,0,1-.34.25.34.34,0,0,1-.2-.06.44.44,0,0,1-.1-.15,1.23,1.23,0,0,1,0-.24v-.66h-.16v0a1.72,1.72,0,0,0,.28-.25,1.42,1.42,0,0,0,.2-.28Z"/><path d="M27.76,20.49v.67A.45.45,0,0,1,28.1,21a.39.39,0,0,1,.23.07.46.46,0,0,1,.18.21.78.78,0,0,1,.06.31.87.87,0,0,1-.08.37.55.55,0,0,1-.21.24.54.54,0,0,1-.31.09.47.47,0,0,1-.17,0,.65.65,0,0,1-.15-.1l-.21.13h0V20.74a.35.35,0,0,0,0-.13.13.13,0,0,0,0-.06l-.09,0v0Zm0,.78v.55a1,1,0,0,0,0,.21.23.23,0,0,0,.06.12.19.19,0,0,0,.13.05.15.15,0,0,0,.11,0,.26.26,0,0,0,.08-.15,1.77,1.77,0,0,0,0-.4.73.73,0,0,0-.07-.39.15.15,0,0,0-.13-.07A.29.29,0,0,0,27.76,21.27Z"/><path d="M29.13,21.85a.18.18,0,0,1,.15.07.22.22,0,0,1-.15.37.26.26,0,0,1-.16-.07.22.22,0,0,1,0-.3A.21.21,0,0,1,29.13,21.85Z"/><path d="M30.44,20.45v1.44c0,.11,0,.18,0,.21a.16.16,0,0,0,.06.08.31.31,0,0,0,.15,0h0v0h-.93v0h.05a.32.32,0,0,0,.16,0,.13.13,0,0,0,.06-.07.53.53,0,0,0,0-.22V21a.5.5,0,0,0,0-.15.13.13,0,0,0,0-.06l-.08,0-.16,0,0,0,.65-.3Z"/><path d="M31.1,22.29v0a1.18,1.18,0,0,0,.36-.14.78.78,0,0,0,.24-.24,1.2,1.2,0,0,0,.13-.33l-.14.06-.12,0a.41.41,0,0,1-.33-.15.57.57,0,0,1-.14-.4.88.88,0,0,1,.07-.32.56.56,0,0,1,.21-.22.57.57,0,0,1,.28-.08.52.52,0,0,1,.29.09.54.54,0,0,1,.22.25.83.83,0,0,1,.09.39,1.13,1.13,0,0,1-.14.53,1,1,0,0,1-.4.41A1.22,1.22,0,0,1,31.1,22.29Zm.75-.86c0-.1,0-.18,0-.25a1.63,1.63,0,0,0-.06-.45.31.31,0,0,0-.09-.16.11.11,0,0,0-.08,0,.11.11,0,0,0-.1.05.54.54,0,0,0-.06.3,1,1,0,0,0,.09.5.19.19,0,0,0,.15.08A.3.3,0,0,0,31.85,21.43Z"/><path d="M32.54,22.29v0a1.14,1.14,0,0,0,.37-.14.91.91,0,0,0,.24-.24.93.93,0,0,0,.12-.33l-.14.06-.12,0a.43.43,0,0,1-.33-.15.57.57,0,0,1-.13-.4.71.71,0,0,1,.07-.32.56.56,0,0,1,.21-.22.52.52,0,0,1,.57,0,.67.67,0,0,1,.22.25,1,1,0,0,1,.08.39,1.12,1.12,0,0,1-.13.53,1.05,1.05,0,0,1-.4.41A1.28,1.28,0,0,1,32.54,22.29Zm.75-.86a2.36,2.36,0,0,0,0-.25,1.64,1.64,0,0,0,0-.45.31.31,0,0,0-.09-.16.14.14,0,0,0-.09,0,.12.12,0,0,0-.1.05.67.67,0,0,0,0,.3,1,1,0,0,0,.09.5.16.16,0,0,0,.15.08A.27.27,0,0,0,33.29,21.43Z"/><path d="M34.38,22.29l.48-1.46h-.37a.67.67,0,0,0-.32.06A.3.3,0,0,0,34,21h0l.12-.54h1.06l-.6,1.8Z"/><path class="cls-1" d="M15.53,39.21l-.59.45,0,0a.27.27,0,0,0,.24.13.68.68,0,0,0,.32-.11l0,0-.77.58,0,0a.78.78,0,0,0,.17-.21.31.31,0,0,0,0-.18.5.5,0,0,0-.09-.18l-.41.31a1,1,0,0,0-.14.13.08.08,0,0,0,0,.07.19.19,0,0,0,.05.1l.07.09a.61.61,0,0,0,.34.25.66.66,0,0,0,.43,0l0,0-.52.29-1-1.26,0,0,0,0a.24.24,0,0,0,.1.08.11.11,0,0,0,.08,0,.31.31,0,0,0,.15-.09l1-.73.12-.09a.1.1,0,0,0,0-.09.18.18,0,0,0-.05-.13l0-.05,0,0,.93,1.22-.43.33,0,0a.7.7,0,0,0,.16-.26.4.4,0,0,0,0-.24,1.34,1.34,0,0,0-.15-.24Z"/><path class="cls-1" d="M15.09,41.45l0,0,0,.05a.46.46,0,0,0,.1.07h.1s.06,0,.13-.11l.86-.84a.56.56,0,0,0,.12-.13.14.14,0,0,0,0-.09.2.2,0,0,0-.07-.1l0,0,0,0,.58.58a1.35,1.35,0,0,1,.3.45.75.75,0,0,1,0,.49.86.86,0,0,1-.27.44,1.12,1.12,0,0,1-.29.21.92.92,0,0,1-.31.07.86.86,0,0,1-.28,0,1.71,1.71,0,0,1-.29-.16,1.31,1.31,0,0,1-.2-.18Zm1.73-.71-1,1-.09.1a.06.06,0,0,0,0,.06l.06.09a.44.44,0,0,0,.35.14,1.05,1.05,0,0,0,.58-.34,1.27,1.27,0,0,0,.32-.47A.44.44,0,0,0,17,41,.82.82,0,0,0,16.82,40.74Z"/><path class="cls-1" d="M17.57,43.7l0,0-.73-.61,0,0,.05,0,.11.06a.14.14,0,0,0,.09,0l.12-.13.77-.92a.53.53,0,0,0,.1-.15.11.11,0,0,0,0-.08.35.35,0,0,0-.08-.1l0,0,0,0,.74.62,0,0-.05,0a.17.17,0,0,0-.12-.06.08.08,0,0,0-.08,0l-.12.12-.77.93a.45.45,0,0,0-.1.14.14.14,0,0,0,0,.09.31.31,0,0,0,.08.1Z"/><path class="cls-1" d="M17.89,44l0,0,0,0a.21.21,0,0,0,.12,0,.1.1,0,0,0,.09,0,.71.71,0,0,0,.1-.13l.68-1a.54.54,0,0,0,.08-.15.14.14,0,0,0,0-.09.38.38,0,0,0-.09-.09l-.05,0,0,0,.68.45a1.56,1.56,0,0,1,.39.37.87.87,0,0,1,.12.49.89.89,0,0,1-.18.48.78.78,0,0,1-.25.26.92.92,0,0,1-.28.14.94.94,0,0,1-.29,0,1.06,1.06,0,0,1-.31-.09l-.23-.14Zm1.55-1-.8,1.19a.41.41,0,0,0-.07.12.09.09,0,0,0,0,0s0,0,.08.08a.41.41,0,0,0,.37.06,1,1,0,0,0,.49-.44,1.31,1.31,0,0,0,.23-.53.51.51,0,0,0-.06-.31A1,1,0,0,0,19.44,43Z"/><path class="cls-1" d="M20.76,45.74l0,0-.84-.45,0-.05.06,0a.21.21,0,0,0,.12,0,.09.09,0,0,0,.08,0,.55.55,0,0,0,.1-.14l.57-1.06c0-.08.06-.14.07-.16a.16.16,0,0,0,0-.09.36.36,0,0,0-.09-.08l-.06,0,0,0,.84.45,0,0-.06,0a.19.19,0,0,0-.12,0,.11.11,0,0,0-.08,0l-.1.15-.57,1.06a.54.54,0,0,0-.06.16.08.08,0,0,0,0,.08l.09.09Z"/><path class="cls-1" d="M22.38,46l-.6-.24-.14.13a.77.77,0,0,0-.09.13.13.13,0,0,0,0,.13.5.5,0,0,0,.15.09l0,.05L21.14,46l0,0a.28.28,0,0,0,.18,0,1.3,1.3,0,0,0,.25-.2l1.16-1.1h0l0,1.64a.88.88,0,0,0,.05.31.18.18,0,0,0,.1.09l0,0-.82-.34,0,0,0,0a.24.24,0,0,0,.15,0,.06.06,0,0,0,.05,0,.07.07,0,0,0,0,0s0,0,0-.11Zm0-.11,0-.68-.5.47Z"/><path class="cls-1" d="M24.49,45.29l.58,1.33.2-.76a.39.39,0,0,0,0-.23.27.27,0,0,0-.2-.12l0,0,.58.15v0h-.16a.16.16,0,0,0-.08.06.47.47,0,0,0-.07.17L25,47.36h-.05l-.8-1.79-.3,1.12a.29.29,0,0,0,0,.23A.31.31,0,0,0,24,47h0v0l-.63-.16v0a.31.31,0,0,0,.22,0,.27.27,0,0,0,.11-.18l.34-1.25,0-.06a.31.31,0,0,0-.07-.12l-.12-.06v0Z"/><path class="cls-1" d="M26.89,47.11,26.25,47l-.1.16a.42.42,0,0,0-.06.15.11.11,0,0,0,.05.12l.17,0v.05l-.61-.08v0a.27.27,0,0,0,.17-.06,1,1,0,0,0,.19-.25l.84-1.37h0l.46,1.57a.74.74,0,0,0,.12.29.22.22,0,0,0,.12.07v.05l-.88-.12v0H27a.09.09,0,0,0,0-.06,0,0,0,0,0,0,0l0-.11Zm0-.1-.19-.66-.36.58Z"/><path class="cls-1" d="M29.58,46l0,.75h0a.27.27,0,0,0,.25-.12.65.65,0,0,0,.09-.33H30l0,1H30a.75.75,0,0,0-.07-.25.27.27,0,0,0-.13-.13.53.53,0,0,0-.2,0l0,.52a.53.53,0,0,0,0,.18.1.1,0,0,0,.05.06.18.18,0,0,0,.11,0h.11a.59.59,0,0,0,.62-.5h.05l-.06.59-1.59.06v0H29a.25.25,0,0,0,.13,0,.1.1,0,0,0,.05-.06.72.72,0,0,0,0-.18l0-1.2a.88.88,0,0,0,0-.15s0-.06-.05-.07a.2.2,0,0,0-.14,0h-.06v0l1.53-.06,0,.54h-.05a.67.67,0,0,0-.12-.28.53.53,0,0,0-.21-.12,1.07,1.07,0,0,0-.28,0Z"/><path class="cls-1" d="M31.15,47.68v0h.06a.17.17,0,0,0,.12,0,.14.14,0,0,0,.05-.08.56.56,0,0,0,0-.17l-.19-1.19a.49.49,0,0,0-.05-.17.1.1,0,0,0-.07,0h-.18v-.05l.81-.13a1.36,1.36,0,0,1,.54,0,.73.73,0,0,1,.42.27,1.05,1.05,0,0,1,.2.47,1.09,1.09,0,0,1,0,.36,1,1,0,0,1-.12.29.8.8,0,0,1-.2.21,1.92,1.92,0,0,1-.29.15,1.08,1.08,0,0,1-.26,0Zm.42-1.81.22,1.41a.68.68,0,0,0,0,.13l0,0H32a.38.38,0,0,0,.31-.21,1,1,0,0,0,.06-.66,1.22,1.22,0,0,0-.2-.54.48.48,0,0,0-.26-.19A1,1,0,0,0,31.57,45.87Z"/><path class="cls-1" d="M34.42,47v0l-.92.25,0,0,.06,0a.2.2,0,0,0,.12-.06.15.15,0,0,0,0-.08.94.94,0,0,0,0-.16l-.32-1.17a.37.37,0,0,0-.06-.16.13.13,0,0,0-.07-.05.3.3,0,0,0-.13,0H33v0l.93-.25v0l-.06,0a.23.23,0,0,0-.12.06.19.19,0,0,0,0,.08.33.33,0,0,0,0,.17l.31,1.16.06.17a.15.15,0,0,0,.08,0,.17.17,0,0,0,.12,0Z"/><path class="cls-1" d="M35.12,44.86l.86-.38,0,0,0,0a.42.42,0,0,0-.13.08.08.08,0,0,0,0,.08.71.71,0,0,0,.06.19l.37.82a.88.88,0,0,0,.16.28.33.33,0,0,0,.17.07.37.37,0,0,0,.22,0,.46.46,0,0,0,.2-.16.4.4,0,0,0,.07-.24,1.13,1.13,0,0,0-.12-.39l-.31-.68a.32.32,0,0,0-.09-.15.12.12,0,0,0-.09,0,.3.3,0,0,0-.17,0l0,0,.58-.26,0,0,0,0a.2.2,0,0,0-.13.19.5.5,0,0,0,.05.15l.28.64a1.5,1.5,0,0,1,.15.44.44.44,0,0,1-.08.32.79.79,0,0,1-.36.3,1,1,0,0,1-.36.09.53.53,0,0,1-.32-.1.83.83,0,0,1-.22-.3l-.36-.82a.58.58,0,0,0-.1-.17l-.08,0-.15,0Z"/><path class="cls-1" d="M37.73,43.69l.39.64,0,0a.45.45,0,0,0,.16-.14.38.38,0,0,0,0-.17.49.49,0,0,0-.07-.24l.05,0,.47.79,0,0a.5.5,0,0,0-.3-.22.4.4,0,0,0-.26.06l0,0,.29.48a.55.55,0,0,0,.1.14.12.12,0,0,0,.09,0l.12,0,0,0,0,0-.82.49,0,0,0,0s.08-.06.09-.09a.15.15,0,0,0,0-.09,1.23,1.23,0,0,0-.08-.15l-.62-1-.1-.14-.08,0a.19.19,0,0,0-.12,0l-.06,0,0,0,1.33-.8.27.45,0,0a.46.46,0,0,0-.23-.18.36.36,0,0,0-.25,0,1.78,1.78,0,0,0-.27.14Z"/><path class="cls-1" d="M39.45,42.36a.9.9,0,0,1,1.35.13,1,1,0,0,1,.22.61.91.91,0,0,1-.39.74.9.9,0,0,1-.81.21,1,1,0,0,1-.55-.36.89.89,0,0,1-.2-.71A.86.86,0,0,1,39.45,42.36Zm.06.06a.4.4,0,0,0-.14.43,1.4,1.4,0,0,0,.29.55,1.19,1.19,0,0,0,.56.44.38.38,0,0,0,.35-.07.43.43,0,0,0,.14-.2.49.49,0,0,0,0-.33,1.31,1.31,0,0,0-.25-.43,1.76,1.76,0,0,0-.39-.39.44.44,0,0,0-.29-.09A.38.38,0,0,0,39.51,42.42Z"/><path class="cls-1" d="M41.66,41.77l.37.36a.53.53,0,0,0,.15.12h.08a.54.54,0,0,0,.14-.11l0,0-.66.67,0,0a.49.49,0,0,0,.11-.14.14.14,0,0,0,0-.09.79.79,0,0,0-.12-.14l-.85-.83a.53.53,0,0,0-.15-.12.14.14,0,0,0-.09,0,.49.49,0,0,0-.13.11l0,0,.6-.61a2,2,0,0,1,.37-.31.51.51,0,0,1,.3-.06.43.43,0,0,1,.27.13.45.45,0,0,1,.14.34.54.54,0,0,1-.09.27l.75.12.19,0a.23.23,0,0,0,.12-.06l0,0-.4.41-1-.16ZM41,41.14l.57.56.06-.05a1.2,1.2,0,0,0,.17-.23.25.25,0,0,0,0-.19.42.42,0,0,0-.13-.2.41.41,0,0,0-.29-.15.45.45,0,0,0-.29.16Z"/><path class="cls-1" d="M42.57,39.17a.94.94,0,0,1,.63-.42,1,1,0,0,1,.71.19,1,1,0,0,1,.37.53.89.89,0,0,1-.18.82.91.91,0,0,1-.72.42,1,1,0,0,1-.64-.21.9.9,0,0,1-.37-.63A.86.86,0,0,1,42.57,39.17Zm.08,0a.4.4,0,0,0,0,.46,1.42,1.42,0,0,0,.42.45,1.22,1.22,0,0,0,.65.28.38.38,0,0,0,.32-.16A.43.43,0,0,0,44.1,40,.45.45,0,0,0,44,39.7a1.44,1.44,0,0,0-.35-.35,1.84,1.84,0,0,0-.48-.28.55.55,0,0,0-.31,0A.43.43,0,0,0,42.65,39.21Z"/><path class="cls-1" d="M43.41,30h0a.1.1,0,0,1-.07-.14,4.17,4.17,0,0,1,1.05-1.27,5.2,5.2,0,0,1,.47-.35l.09-.06a5.22,5.22,0,0,0,.91-1,.11.11,0,0,1,.16,0,.11.11,0,0,1,0,.16,5.29,5.29,0,0,1-1,1.09l-.09.06a3.79,3.79,0,0,0-.45.34,3.89,3.89,0,0,0-1,1.16A.12.12,0,0,1,43.41,30Z"/><path class="cls-1" d="M42.82,32.51a.11.11,0,0,1-.08,0,.12.12,0,0,1,0-.17A7.68,7.68,0,0,1,44,31.38a5,5,0,0,1,.88-.4,3.28,3.28,0,0,0,1.26-1.16.11.11,0,0,1,.16,0,.11.11,0,0,1,0,.16A3.57,3.57,0,0,1,45,31.19a5.48,5.48,0,0,0-.85.38,8.66,8.66,0,0,0-1.24.91A.11.11,0,0,1,42.82,32.51Z"/><path class="cls-1" d="M43.51,28.14h0a.11.11,0,0,1-.1-.13,3.07,3.07,0,0,1,.85-1.84,5.63,5.63,0,0,0,1.11-1.84.12.12,0,0,1,.15-.07.12.12,0,0,1,.07.15,5.89,5.89,0,0,1-1.18,1.93,3,3,0,0,0-.77,1.71A.12.12,0,0,1,43.51,28.14Z"/><path class="cls-1" d="M43.31,25.81a.1.1,0,0,1-.11-.1A2.44,2.44,0,0,1,44,23.58a3.61,3.61,0,0,0,.43-2.26.1.1,0,0,1,.1-.13.11.11,0,0,1,.13.09,3.8,3.8,0,0,1-.49,2.46,2.21,2.21,0,0,0-.69,1.94.12.12,0,0,1-.1.13Z"/><path class="cls-1" d="M42.75,23.61h0a.11.11,0,0,1-.12-.11,8.5,8.5,0,0,1,.14-1.38,3.67,3.67,0,0,1,.48-1.2,2,2,0,0,0,.15-1.3.12.12,0,1,1,.23-.05A2.34,2.34,0,0,1,43.45,21,3.66,3.66,0,0,0,43,22.16a9.19,9.19,0,0,0-.13,1.34A.11.11,0,0,1,42.75,23.61Z"/><path class="cls-1" d="M33.31,13.18a2.38,2.38,0,0,0-.78-.14,1.42,1.42,0,0,0-1.42.87,1.27,1.27,0,0,0,.22,1.23,2.12,2.12,0,0,0,1,.73,2.38,2.38,0,0,0,.78.14,2.16,2.16,0,0,0,1.91-.7C35.17,13.87,33.31,13.18,33.31,13.18ZM34.25,15a1.13,1.13,0,0,1-1.13.66,2,2,0,0,1-.68-.12,1.8,1.8,0,0,1-.86-.62,1,1,0,0,1-.18-1,1.12,1.12,0,0,1,1.13-.66,2,2,0,0,1,.68.12C34,13.76,34.47,14.45,34.25,15Z"/><path class="cls-1" d="M33.11,15.47a1.78,1.78,0,0,1-.59-.1,1.62,1.62,0,0,1-.76-.55.78.78,0,0,1-.15-.73c.17-.46.85-.64,1.52-.4a1.58,1.58,0,0,1,.76.54A.77.77,0,0,1,34,15,.9.9,0,0,1,33.11,15.47Zm-.58-1.74a.76.76,0,0,0-.77.41.61.61,0,0,0,.13.59,1.4,1.4,0,0,0,.68.49c.59.21,1.18.07,1.32-.31a.64.64,0,0,0-.13-.59,1.5,1.5,0,0,0-.69-.49A1.51,1.51,0,0,0,32.53,13.73Z"/><path class="cls-1" d="M30.06,42.28h-.47a.11.11,0,0,1-.1-.12.11.11,0,0,1,.12-.11c.1,0,10.43.78,13.45-10.85,0-.11,2.76-10.48-8.16-15.81a.12.12,0,0,1,0-.15.11.11,0,0,1,.15-.06c11.1,5.42,8.31,16,8.28,16.08C40.59,41.62,32.16,42.28,30.06,42.28Z"/><path class="cls-1" d="M43.37,30.3l-.08,0A9.15,9.15,0,0,0,41.21,29a2.93,2.93,0,0,1-1.37-1.27.1.1,0,0,1,.06-.14.11.11,0,0,1,.15.06,2.71,2.71,0,0,0,1.25,1.14,9.17,9.17,0,0,1,2.14,1.33.11.11,0,0,1,0,.16A.12.12,0,0,1,43.37,30.3Z"/><path class="cls-1" d="M42,34.72a.12.12,0,0,1-.12-.08,3.8,3.8,0,0,0-1.12-1.52,4.32,4.32,0,0,1-.46-.48,4.78,4.78,0,0,1-.83-1.57.12.12,0,0,1,.08-.15.12.12,0,0,1,.14.08,4.5,4.5,0,0,0,.79,1.5,3.79,3.79,0,0,0,.44.45,4.06,4.06,0,0,1,1.19,1.63.12.12,0,0,1-.09.14Z"/><path class="cls-1" d="M41.79,35h0a.12.12,0,0,1-.05-.16,4.09,4.09,0,0,1,1.76-1.42,5.31,5.31,0,0,1,1-.33,4.27,4.27,0,0,0,1.72-1.27.11.11,0,1,1,.18.14,4.34,4.34,0,0,1-1.84,1.35,5.41,5.41,0,0,0-1,.32A3.81,3.81,0,0,0,41.89,35,.11.11,0,0,1,41.79,35Z"/><path class="cls-1" d="M42.73,32.81a.11.11,0,0,1-.09-.05,12.55,12.55,0,0,0-1.84-1.82,5.65,5.65,0,0,1-1.13-1.38.11.11,0,0,1,0-.15.12.12,0,0,1,.16.06,6.24,6.24,0,0,0,1.06,1.3,12.22,12.22,0,0,1,1.88,1.85.11.11,0,0,1,0,.16A.11.11,0,0,1,42.73,32.81Z"/><path class="cls-1" d="M41.15,36.17l-.08,0a.12.12,0,0,1,0-.16,4.39,4.39,0,0,1,2.57-.92,2.41,2.41,0,0,0,1.74-.85.12.12,0,0,1,.17,0,.14.14,0,0,1,0,.17,2.64,2.64,0,0,1-1.93.93,4.3,4.3,0,0,0-2.39.84A.12.12,0,0,1,41.15,36.17Z"/><path class="cls-1" d="M40.32,37.37h0a.12.12,0,0,1-.1-.13,3.78,3.78,0,0,0-.43-1.36,8.86,8.86,0,0,0-.44-.87l-.11-.22A3.93,3.93,0,0,1,39,32.37a.11.11,0,0,1,.14-.08.11.11,0,0,1,.08.14,3.76,3.76,0,0,0,.19,2.26l.12.21c.15.29.31.58.44.89.5,1.17.46,1.41.45,1.48A.12.12,0,0,1,40.32,37.37Z"/><path class="cls-1" d="M39.53,38.29a.16.16,0,0,1-.09,0,.12.12,0,0,1,0-.17c.62-.62,2.42-.62,2.5-.62a2.83,2.83,0,0,0,1.85-.81.12.12,0,0,1,.18.15,3,3,0,0,1-2,.89s-1.78,0-2.34.56A.11.11,0,0,1,39.53,38.29Z"/><path class="cls-1" d="M38.88,38.93h0a.11.11,0,0,1-.1-.13,3.77,3.77,0,0,0-.2-1.76,3,3,0,0,0-.44-.81,4.53,4.53,0,0,1-.47-2.83.11.11,0,0,1,.13-.1.12.12,0,0,1,.1.13,4.39,4.39,0,0,0,.43,2.67,3.36,3.36,0,0,1,.47.87A3.93,3.93,0,0,1,39,38.84.12.12,0,0,1,38.88,38.93Z"/><path class="cls-1" d="M39.31,39.83a12.94,12.94,0,0,1-1.43-.08.12.12,0,1,1,0-.23c2.94.31,3.81-.39,3.82-.4a.12.12,0,0,1,.16,0,.12.12,0,0,1,0,.17A4.2,4.2,0,0,1,39.31,39.83Z"/><path class="cls-1" d="M36.76,40.49a.1.1,0,0,1-.09,0,.11.11,0,0,1,0-.16,1.54,1.54,0,0,0,.63-1.93,2.43,2.43,0,0,1,0-2.31.11.11,0,0,1,.16,0,.12.12,0,0,1,0,.16,2.12,2.12,0,0,0,0,2.07,1.81,1.81,0,0,1-.69,2.22A.1.1,0,0,1,36.76,40.49Z"/><path class="cls-1" d="M39,41.2a4.57,4.57,0,0,1-2.49-.61.12.12,0,0,1,0-.16.11.11,0,0,1,.16,0,5.43,5.43,0,0,0,3.2.52A.12.12,0,0,1,40,41a.13.13,0,0,1-.1.13A8.67,8.67,0,0,1,39,41.2Z"/><path class="cls-1" d="M43.51,28.66a.12.12,0,0,1-.1-.06,3.28,3.28,0,0,0-1.78-1.53,4,4,0,0,1-2.2-1.54.12.12,0,0,1,0-.16.11.11,0,0,1,.16,0,4,4,0,0,0,2.07,1.44,3.47,3.47,0,0,1,1.92,1.63.11.11,0,0,1,0,.16Z"/><path class="cls-1" d="M43.37,26.17a.08.08,0,0,1-.07,0,5.17,5.17,0,0,0-1.67-.75,6.32,6.32,0,0,1-1.93-.94.11.11,0,0,1,.14-.18,5.85,5.85,0,0,0,1.85.89,5.46,5.46,0,0,1,1.74.79.11.11,0,0,1,0,.16A.1.1,0,0,1,43.37,26.17Z"/><path class="cls-1" d="M42.89,24.05h0a6.49,6.49,0,0,0-1.51-.41,4.33,4.33,0,0,1-1.53-.41,6.32,6.32,0,0,1-.56-.33.11.11,0,0,1,0-.16.11.11,0,0,1,.16,0,4.74,4.74,0,0,0,.54.31,4,4,0,0,0,1.44.39,6.29,6.29,0,0,1,1.58.43A.12.12,0,0,1,43,24,.11.11,0,0,1,42.89,24.05Z"/><path class="cls-1" d="M36.72,42.31a3,3,0,0,1-1-.18,3.21,3.21,0,0,0-1.48-.5.12.12,0,0,1-.12-.12.13.13,0,0,1,.11-.12,3.64,3.64,0,0,1,1.59.53,2.75,2.75,0,0,0,1.87,0,.11.11,0,0,1,.15.06.11.11,0,0,1-.06.15A2.61,2.61,0,0,1,36.72,42.31Z"/><path class="cls-1" d="M35.06,41.32a.14.14,0,0,1-.1,0,.12.12,0,0,1,0-.16,1.19,1.19,0,0,0,.57-1.36v0a2.37,2.37,0,0,1,.77-1.63.11.11,0,1,1,.15.17,2.2,2.2,0,0,0-.69,1.44,1.43,1.43,0,0,1-.68,1.6Z"/><path class="cls-1" d="M33.37,41.87a.11.11,0,0,1-.1-.06.12.12,0,0,1,0-.16A1.34,1.34,0,0,0,34,40.31a2.21,2.21,0,0,1,0-.66,2.58,2.58,0,0,1,.67-1.21.12.12,0,0,1,.17,0,.11.11,0,0,1,0,.16,2.6,2.6,0,0,0-.61,1.11,2.1,2.1,0,0,0,0,.59,1.58,1.58,0,0,1-.8,1.56Z"/><path class="cls-1" d="M31.82,42.17l-.06,0a.1.1,0,0,1,0-.15c.25-.45.93-1.45,1-1.49a.53.53,0,0,0,0-.52,1.1,1.1,0,0,0-.76-.41.11.11,0,0,1-.1-.13.11.11,0,0,1,.13-.1,1.38,1.38,0,0,1,.94.53.81.81,0,0,1,0,.74s-.71,1.05-1,1.49A.11.11,0,0,1,31.82,42.17Z"/><path class="cls-1" d="M34.6,43a1.56,1.56,0,0,1-1-.36s-.3-.31-1.55-.5a.12.12,0,0,1-.1-.13.11.11,0,0,1,.13-.1c1.35.2,1.65.53,1.68.57a1.51,1.51,0,0,0,1.3.23.12.12,0,0,1,.14.08.12.12,0,0,1-.08.15A2.07,2.07,0,0,1,34.6,43Z"/><path class="cls-1" d="M33.07,43.61h0a3.58,3.58,0,0,1-.77-.17,3,3,0,0,1-1.23-.82,2,2,0,0,0-.43-.35.11.11,0,0,1,0-.16.11.11,0,0,1,.15,0,2.49,2.49,0,0,1,.48.39,2.7,2.7,0,0,0,1.13.76,3.56,3.56,0,0,0,.72.16.12.12,0,0,1,0,.23Z"/><path class="cls-1" d="M30.36,42.29a.12.12,0,0,1-.1-.07.11.11,0,0,1,0-.15.9.9,0,0,0,.53-.62,1.4,1.4,0,0,1,.62-1,3,3,0,0,1,.38-.2.12.12,0,0,1,.08.22,2.46,2.46,0,0,0-.33.17,1.15,1.15,0,0,0-.52.82,1.11,1.11,0,0,1-.66.79Z"/><path class="cls-1" d="M42,21.94h0a.11.11,0,0,1-.06-.15,2.53,2.53,0,0,0,.12-1.66,3,3,0,0,1,.11-2.05.11.11,0,1,1,.21.09,2.88,2.88,0,0,0-.1,1.89,2.69,2.69,0,0,1-.13,1.82A.11.11,0,0,1,42,21.94Z"/><path class="cls-1" d="M42,22.08h0a3.28,3.28,0,0,0-1.45-.14,3.08,3.08,0,0,1-2.25-.44.12.12,0,0,1,0-.16.11.11,0,0,1,.16,0,3,3,0,0,0,2.08.41,3.42,3.42,0,0,1,1.58.14.12.12,0,0,1,.07.15A.11.11,0,0,1,42,22.08Z"/><path class="cls-1" d="M41.1,20.41h-.05a.12.12,0,0,1,0-.16,1.59,1.59,0,0,0,.11-1.1,2.66,2.66,0,0,0-.21-.58,4.45,4.45,0,0,1-.31-2,.11.11,0,0,1,.12-.1.11.11,0,0,1,.11.12,4.45,4.45,0,0,0,.29,1.92,3.58,3.58,0,0,1,.23.63,1.83,1.83,0,0,1-.14,1.26A.11.11,0,0,1,41.1,20.41Z"/><path class="cls-1" d="M38.55,20.78a2.12,2.12,0,0,1-1-.19.11.11,0,0,1,.1-.2,3.16,3.16,0,0,0,1.81,0,4.13,4.13,0,0,1,1.79,0,.11.11,0,0,1,.1.13.13.13,0,0,1-.14.1,3.89,3.89,0,0,0-1.68,0A4.31,4.31,0,0,1,38.55,20.78Z"/><path class="cls-1" d="M37.28,19.72h-.2a.11.11,0,0,1-.1-.13.12.12,0,0,1,.12-.1,2,2,0,0,0,1.3-.36A2.7,2.7,0,0,1,40,18.81.12.12,0,0,1,40,19a2.49,2.49,0,0,0-1.43.26A2.22,2.22,0,0,1,37.28,19.72Z"/><path class="cls-1" d="M40.19,19.26l-.06,0a.11.11,0,0,1,0-.16A1.19,1.19,0,0,0,40,17.64a5.26,5.26,0,0,1-.75-1.44.11.11,0,0,1,.08-.14.11.11,0,0,1,.14.07,5.3,5.3,0,0,0,.7,1.36,1.4,1.4,0,0,1,.18,1.69v0A.12.12,0,0,1,40.19,19.26Z"/><path class="cls-1" d="M38.92,18a.11.11,0,0,1-.08,0,.12.12,0,0,1,0-.17A.93.93,0,0,0,39,17a1.47,1.47,0,0,0-.41-.76,3.44,3.44,0,0,1-.69-1.4.12.12,0,0,1,.23-.05,3.27,3.27,0,0,0,.63,1.29,1.77,1.77,0,0,1,.47.88,1.11,1.11,0,0,1-.2,1A.11.11,0,0,1,38.92,18Z"/><path class="cls-1" d="M36.26,18.9l-.28,0a.12.12,0,0,1-.1-.14.13.13,0,0,1,.14-.09,1.77,1.77,0,0,0,1.36-.42c.4-.47,1.6-.38,1.65-.38a.12.12,0,1,1,0,.23c-.31,0-1.19,0-1.46.31A2.05,2.05,0,0,1,36.26,18.9Z"/><path class="cls-1" d="M37.9,17.17s0,0,0,0A.11.11,0,0,1,37.8,17a1,1,0,0,0-.07-.91,2.6,2.6,0,0,0-.41-.64A6.83,6.83,0,0,1,36.45,14a.12.12,0,0,1,.06-.15.11.11,0,0,1,.15.06,6.85,6.85,0,0,0,.83,1.41,2.63,2.63,0,0,1,.45.7A1.19,1.19,0,0,1,38,17.11.11.11,0,0,1,37.9,17.17Z"/><path class="cls-1" d="M35,18.23a.12.12,0,0,1-.11-.09A.12.12,0,0,1,35,18a2.64,2.64,0,0,0,1.3-.71c.3-.43,1.58-.3,1.73-.28a.11.11,0,0,1,.1.13.12.12,0,0,1-.13.1c-.49-.06-1.35-.06-1.52.19a2.74,2.74,0,0,1-1.43.8Z"/><path class="cls-1" d="M36.59,16.28a.16.16,0,0,1-.09,0,.11.11,0,0,1,0-.16.62.62,0,0,0,0-.38,2.16,2.16,0,0,0-.37-1c-.43-.64-1-1.7-1-1.71a.12.12,0,0,1,0-.16.12.12,0,0,1,.16.05s.57,1.06,1,1.69a2.49,2.49,0,0,1,.41,1.08.71.71,0,0,1-.1.57A.11.11,0,0,1,36.59,16.28Z"/><path class="cls-1" d="M34.52,17.46a.12.12,0,0,1-.11-.08.11.11,0,0,1,.07-.14,4.68,4.68,0,0,0,1.22-.64,2.61,2.61,0,0,1,1.15-.37.11.11,0,0,1,.13.1.12.12,0,0,1-.1.13,2.41,2.41,0,0,0-1,.31,5,5,0,0,1-1.3.68Z"/><path class="cls-1" d="M35.69,15.77h0a.11.11,0,0,1-.08-.14,1.11,1.11,0,0,0,0-.37,1.56,1.56,0,0,0-.52-1.08,11.47,11.47,0,0,1-1.28-1.56.12.12,0,0,1,0-.16.12.12,0,0,1,.16,0A12.14,12.14,0,0,0,35.25,14a1.78,1.78,0,0,1,.59,1.23,1.19,1.19,0,0,1,0,.43A.11.11,0,0,1,35.69,15.77Z"/><path class="cls-1" d="M33.32,17.17a.12.12,0,0,1,0-.23,3.23,3.23,0,0,0,1.14-.68,2.2,2.2,0,0,1,1.4-.63.12.12,0,0,1,0,.23s-.95.1-1.26.55a3.19,3.19,0,0,1-1.27.76Z"/><path class="cls-1" d="M32.18,17.16l-.06-.1,0-.12a3.62,3.62,0,0,0,1.58-.86,5.18,5.18,0,0,1,.56-.43.11.11,0,0,1,.16,0,.11.11,0,0,1,0,.16,3.94,3.94,0,0,0-.53.41A3.9,3.9,0,0,1,32.18,17.16Z"/><path class="cls-1" d="M33.45,13.46a.11.11,0,0,1-.11-.08,2.21,2.21,0,0,0-.92-1.08.12.12,0,0,1,0-.16.12.12,0,0,1,.17,0,2.34,2.34,0,0,1,1,1.21.11.11,0,0,1-.08.14Z"/><path class="cls-1" d="M32.07,16.18a3.65,3.65,0,0,1-1.7-.44,3,3,0,0,0-1.26-.43.12.12,0,0,1-.11-.12.12.12,0,0,1,.13-.11,3.59,3.59,0,0,1,1.35.45,3.32,3.32,0,0,0,1.85.41,2.63,2.63,0,0,0,.74-.16.11.11,0,0,1,.15.06.11.11,0,0,1-.06.15,2.43,2.43,0,0,1-.81.18Z"/><path class="cls-1" d="M31.3,15a.09.09,0,0,1-.07,0,3,3,0,0,0-1.63-.55.14.14,0,0,1-.13-.11.12.12,0,0,1,.11-.12,3,3,0,0,1,1.79.6.11.11,0,0,1,0,.16A.12.12,0,0,1,31.3,15Z"/><path class="cls-1" d="M31.12,14.22h-.05a4.63,4.63,0,0,0-1.94-.36.13.13,0,0,1-.13-.11.12.12,0,0,1,.11-.12,4.68,4.68,0,0,1,2.06.38.12.12,0,0,1,0,.15A.1.1,0,0,1,31.12,14.22Z"/><path class="cls-1" d="M32.66,13.31a.12.12,0,0,1-.11-.08,1.75,1.75,0,0,0-1.28-1,.12.12,0,0,1-.09-.14.13.13,0,0,1,.14-.09,2,2,0,0,1,1.44,1.11.11.11,0,0,1-.06.15Z"/><path class="cls-1" d="M31.58,13.58a.14.14,0,0,1-.1-.05,1.51,1.51,0,0,0-1.54-.47.11.11,0,0,1-.13-.09.1.1,0,0,1,.09-.13,1.71,1.71,0,0,1,1.77.56.11.11,0,0,1,0,.16Z"/><path class="cls-1" d="M15.7,30h0a.11.11,0,0,0,.08-.14,4.48,4.48,0,0,0-1.05-1.27,5.34,5.34,0,0,0-.48-.35l-.08-.06a5.39,5.39,0,0,1-.92-1,.1.1,0,0,0-.16,0,.12.12,0,0,0,0,.16,5.44,5.44,0,0,0,1,1.09l.08.06a3.79,3.79,0,0,1,.45.34,4,4,0,0,1,1,1.16A.11.11,0,0,0,15.7,30Z"/><path class="cls-1" d="M16.28,32.51a.11.11,0,0,0,.08,0,.12.12,0,0,0,0-.17,8.13,8.13,0,0,0-1.28-.93,4.87,4.87,0,0,0-.87-.4,3.34,3.34,0,0,1-1.27-1.16.12.12,0,0,0-.19.13,3.49,3.49,0,0,0,1.37,1.24,5.81,5.81,0,0,1,.84.38,8.66,8.66,0,0,1,1.24.91A.11.11,0,0,0,16.28,32.51Z"/><path class="cls-1" d="M15.59,28.14h0A.11.11,0,0,0,15.7,28a3.09,3.09,0,0,0-.84-1.84,5.94,5.94,0,0,1-1.12-1.84.12.12,0,0,0-.15-.07.11.11,0,0,0-.06.15,5.79,5.79,0,0,0,1.17,1.93,3,3,0,0,1,.78,1.71A.11.11,0,0,0,15.59,28.14Z"/><path class="cls-1" d="M15.79,25.81a.12.12,0,0,0,.12-.1,2.43,2.43,0,0,0-.76-2.13,3.5,3.5,0,0,1-.42-2.26.11.11,0,0,0-.1-.13.11.11,0,0,0-.13.09A3.73,3.73,0,0,0,15,23.74a2.21,2.21,0,0,1,.69,1.94.11.11,0,0,0,.1.13Z"/><path class="cls-1" d="M16.36,23.61h0a.11.11,0,0,0,.11-.11,8.45,8.45,0,0,0-.13-1.38,3.9,3.9,0,0,0-.49-1.2,2,2,0,0,1-.15-1.3.11.11,0,0,0-.08-.14.12.12,0,0,0-.14.09A2.23,2.23,0,0,0,15.65,21a3.66,3.66,0,0,1,.46,1.13,8,8,0,0,1,.13,1.34A.11.11,0,0,0,16.36,23.61Z"/><path class="cls-1" d="M24.07,15.31A2.18,2.18,0,0,0,26,16a2.28,2.28,0,0,0,.77-.14,2.2,2.2,0,0,0,1-.73A1.33,1.33,0,0,0,28,13.91,1.43,1.43,0,0,0,26.57,13a2.38,2.38,0,0,0-.78.14S23.93,13.87,24.07,15.31Zm1.83-1.84a2,2,0,0,1,.67-.12,1.14,1.14,0,0,1,1.14.66,1,1,0,0,1-.18,1,1.88,1.88,0,0,1-.87.62,2,2,0,0,1-.67.12A1.14,1.14,0,0,1,24.85,15C24.64,14.45,25.1,13.76,25.9,13.47Z"/><path class="cls-1" d="M25.07,15a.78.78,0,0,1,.15-.73,1.54,1.54,0,0,1,.76-.54c.66-.24,1.34-.06,1.51.4a.78.78,0,0,1-.15.73,1.62,1.62,0,0,1-.76.55,1.78,1.78,0,0,1-.59.1A.91.91,0,0,1,25.07,15Zm1-1.13a1.55,1.55,0,0,0-.69.49.64.64,0,0,0-.13.59c.14.38.73.52,1.32.31a1.48,1.48,0,0,0,.69-.49.67.67,0,0,0,.13-.59.78.78,0,0,0-.78-.41A1.55,1.55,0,0,0,26,13.83Z"/><path class="cls-1" d="M29,42.28h.47a.12.12,0,0,0,.11-.12.12.12,0,0,0-.13-.11c-.1,0-10.43.78-13.44-10.85,0-.11-2.77-10.48,8.15-15.81a.11.11,0,0,0,.05-.15.11.11,0,0,0-.15-.06c-11.09,5.42-8.3,16-8.27,16.08C18.51,41.62,26.94,42.28,29,42.28Z"/><path class="cls-1" d="M15.74,30.3l.07,0A9.4,9.4,0,0,1,17.89,29a2.94,2.94,0,0,0,1.38-1.27.11.11,0,0,0-.07-.14.11.11,0,0,0-.15.06,2.71,2.71,0,0,1-1.25,1.14,9.17,9.17,0,0,0-2.14,1.33.11.11,0,0,0,0,.16A.1.1,0,0,0,15.74,30.3Z"/><path class="cls-1" d="M17.16,34.72a.11.11,0,0,0,.11-.08,3.89,3.89,0,0,1,1.12-1.52,4.32,4.32,0,0,0,.47-.48,5,5,0,0,0,.83-1.57.12.12,0,0,0-.08-.15.12.12,0,0,0-.14.08,5,5,0,0,1-.79,1.5,4.76,4.76,0,0,1-.44.45,4,4,0,0,0-1.19,1.63.11.11,0,0,0,.08.14Z"/><path class="cls-1" d="M17.31,35h.06a.12.12,0,0,0,0-.16,4,4,0,0,0-1.76-1.42,5.09,5.09,0,0,0-1-.33,4.27,4.27,0,0,1-1.72-1.27.11.11,0,1,0-.18.14,4.41,4.41,0,0,0,1.84,1.35,5.15,5.15,0,0,1,1,.32A3.81,3.81,0,0,1,17.21,35,.11.11,0,0,0,17.31,35Z"/><path class="cls-1" d="M16.38,32.81a.14.14,0,0,0,.09-.05,12.55,12.55,0,0,1,1.84-1.82,5.9,5.9,0,0,0,1.13-1.38.11.11,0,1,0-.21-.09,5.88,5.88,0,0,1-1.07,1.3,11.91,11.91,0,0,0-1.87,1.85.11.11,0,0,0,0,.16A.09.09,0,0,0,16.38,32.81Z"/><path class="cls-1" d="M18,36.17a.11.11,0,0,0,.08,0A.1.1,0,0,0,18,36a4.34,4.34,0,0,0-2.56-.92,2.44,2.44,0,0,1-1.75-.85.11.11,0,0,0-.16,0,.12.12,0,0,0,0,.17,2.59,2.59,0,0,0,1.92.93,4.34,4.34,0,0,1,2.4.84A.09.09,0,0,0,18,36.17Z"/><path class="cls-1" d="M18.79,37.37h0a.11.11,0,0,0,.1-.13,3.72,3.72,0,0,1,.44-1.36,8.79,8.79,0,0,1,.43-.87l.12-.22a3.82,3.82,0,0,0,.2-2.42.1.1,0,0,0-.13-.08.11.11,0,0,0-.09.14,3.76,3.76,0,0,1-.19,2.26l-.11.21a9.27,9.27,0,0,0-.45.89c-.49,1.17-.46,1.41-.45,1.48A.12.12,0,0,0,18.79,37.37Z"/><path class="cls-1" d="M19.58,38.29a.11.11,0,0,0,.08,0,.14.14,0,0,0,0-.17,4.62,4.62,0,0,0-2.5-.62,2.84,2.84,0,0,1-1.86-.81.11.11,0,0,0-.17.15,3,3,0,0,0,2,.89s1.79,0,2.35.56A.11.11,0,0,0,19.58,38.29Z"/><path class="cls-1" d="M20.23,38.93h0a.11.11,0,0,0,.09-.13,3.77,3.77,0,0,1,.2-1.76,3,3,0,0,1,.44-.81,4.56,4.56,0,0,0,.48-2.83.12.12,0,0,0-.23,0,4.47,4.47,0,0,1-.43,2.67,3.37,3.37,0,0,0-.48.87,3.94,3.94,0,0,0-.2,1.87A.1.1,0,0,0,20.23,38.93Z"/><path class="cls-1" d="M19.79,39.83a13.1,13.1,0,0,0,1.44-.08.12.12,0,0,0,.1-.13.12.12,0,0,0-.13-.1c-2.93.31-3.81-.39-3.81-.4a.12.12,0,0,0-.16.18A4.24,4.24,0,0,0,19.79,39.83Z"/><path class="cls-1" d="M22.35,40.49a.11.11,0,0,0,.09,0,.11.11,0,0,0,0-.16,1.57,1.57,0,0,1-.63-1.93,2.4,2.4,0,0,0,0-2.31.1.1,0,0,0-.15,0,.11.11,0,0,0,0,.16,2.16,2.16,0,0,1,0,2.07,1.82,1.82,0,0,0,.7,2.22A.08.08,0,0,0,22.35,40.49Z"/><path class="cls-1" d="M20.12,41.2a4.53,4.53,0,0,0,2.49-.61.11.11,0,0,0,0-.16.11.11,0,0,0-.16,0,5.43,5.43,0,0,1-3.2.52.12.12,0,0,0-.13.1.11.11,0,0,0,.1.13A8.1,8.1,0,0,0,20.12,41.2Z"/><path class="cls-1" d="M15.59,28.66a.11.11,0,0,0,.1-.06,3.31,3.31,0,0,1,1.79-1.53,4,4,0,0,0,2.19-1.54.11.11,0,1,0-.19-.12,3.9,3.9,0,0,1-2.06,1.44,3.47,3.47,0,0,0-1.93,1.63.12.12,0,0,0,0,.16Z"/><path class="cls-1" d="M15.74,26.17a.07.07,0,0,0,.06,0,5.17,5.17,0,0,1,1.67-.75,6.22,6.22,0,0,0,1.94-.94.12.12,0,0,0-.15-.18,5.85,5.85,0,0,1-1.84.89,5.57,5.57,0,0,0-1.75.79.12.12,0,0,0,0,.16A.1.1,0,0,0,15.74,26.17Z"/><path class="cls-1" d="M16.21,24.05h.05a6.15,6.15,0,0,1,1.51-.41,4.33,4.33,0,0,0,1.52-.41,6.32,6.32,0,0,0,.56-.33.12.12,0,0,0,0-.16.11.11,0,0,0-.16,0c-.18.11-.36.22-.54.31a4.15,4.15,0,0,1-1.45.39,6.15,6.15,0,0,0-1.57.43.12.12,0,0,0-.07.15A.12.12,0,0,0,16.21,24.05Z"/><path class="cls-1" d="M22.39,42.31a3,3,0,0,0,1-.18,3.26,3.26,0,0,1,1.48-.5.12.12,0,0,0,.12-.12.13.13,0,0,0-.11-.12,3.76,3.76,0,0,0-1.59.53,2.75,2.75,0,0,1-1.87,0,.12.12,0,0,0-.15.06.11.11,0,0,0,.06.15A2.68,2.68,0,0,0,22.39,42.31Z"/><path class="cls-1" d="M24,41.32a.12.12,0,0,0,.1,0,.11.11,0,0,0,0-.16,1.2,1.2,0,0,1-.58-1.36v0a2.41,2.41,0,0,0-.77-1.63.12.12,0,0,0-.16.17,2.24,2.24,0,0,1,.7,1.44A1.44,1.44,0,0,0,24,41.3Z"/><path class="cls-1" d="M25.73,41.87a.11.11,0,0,0,.1-.06.12.12,0,0,0,0-.16,1.36,1.36,0,0,1-.68-1.34,1.93,1.93,0,0,0-.05-.66,2.49,2.49,0,0,0-.67-1.21.1.1,0,0,0-.16,0,.12.12,0,0,0,0,.16,2.48,2.48,0,0,1,.61,1.11,2.1,2.1,0,0,1,0,.59,1.59,1.59,0,0,0,.81,1.56Z"/><path class="cls-1" d="M27.29,42.17l.05,0a.11.11,0,0,0,.05-.15c-.26-.45-.94-1.45-1-1.49a.59.59,0,0,1,0-.52,1.12,1.12,0,0,1,.77-.41.12.12,0,0,0,.1-.13.11.11,0,0,0-.13-.1,1.38,1.38,0,0,0-.94.53.78.78,0,0,0,0,.74s.72,1.05,1,1.49A.11.11,0,0,0,27.29,42.17Z"/><path class="cls-1" d="M24.5,43a1.56,1.56,0,0,0,1-.36s.3-.31,1.56-.5a.12.12,0,0,0,0-.23c-1.35.2-1.65.53-1.68.57a1.49,1.49,0,0,1-1.29.23.12.12,0,1,0-.07.23A2.3,2.3,0,0,0,24.5,43Z"/><path class="cls-1" d="M26,43.61h0a3.56,3.56,0,0,0,.76-.17,3,3,0,0,0,1.24-.82,2,2,0,0,1,.42-.35.12.12,0,0,0-.12-.2,2.17,2.17,0,0,0-.47.39,2.72,2.72,0,0,1-1.14.76,3.71,3.71,0,0,1-.71.16.12.12,0,0,0-.11.12A.13.13,0,0,0,26,43.61Z"/><path class="cls-1" d="M28.74,42.29a.12.12,0,0,0,.11-.07.12.12,0,0,0-.05-.15.9.9,0,0,1-.54-.62,1.37,1.37,0,0,0-.62-1c-.2-.13-.37-.19-.37-.2a.12.12,0,0,0-.15.07.11.11,0,0,0,.06.15,2.23,2.23,0,0,1,.34.17,1.21,1.21,0,0,1,.52.82,1.09,1.09,0,0,0,.65.79Z"/><path class="cls-1" d="M17.07,21.94h.05a.11.11,0,0,0,.06-.15,2.58,2.58,0,0,1-.13-1.66,2.92,2.92,0,0,0-.11-2.05.11.11,0,0,0-.15-.06.12.12,0,0,0-.06.15,2.74,2.74,0,0,1,.1,1.89A2.8,2.8,0,0,0,17,21.87.1.1,0,0,0,17.07,21.94Z"/><path class="cls-1" d="M17.07,22.08h0a3.31,3.31,0,0,1,1.45-.14,3.1,3.1,0,0,0,2.26-.44.12.12,0,0,0,0-.16.11.11,0,0,0-.16,0,3,3,0,0,1-2.08.41,3.45,3.45,0,0,0-1.58.14A.12.12,0,0,0,17,22,.11.11,0,0,0,17.07,22.08Z"/><path class="cls-1" d="M18,20.41h.06a.13.13,0,0,0,0-.16,1.58,1.58,0,0,1-.1-1.1,2.23,2.23,0,0,1,.21-.58,4.77,4.77,0,0,0,.31-2,.11.11,0,0,0-.13-.1.11.11,0,0,0-.1.12A4.63,4.63,0,0,1,18,18.46a2.93,2.93,0,0,0-.23.63,1.82,1.82,0,0,0,.13,1.26A.11.11,0,0,0,18,20.41Z"/><path class="cls-1" d="M20.55,20.78a2.12,2.12,0,0,0,1-.19.11.11,0,0,0,.06-.15.12.12,0,0,0-.16-.05,3.12,3.12,0,0,1-1.8,0,4.18,4.18,0,0,0-1.8,0,.12.12,0,0,0,0,.23,3.89,3.89,0,0,1,1.68,0A4.41,4.41,0,0,0,20.55,20.78Z"/><path class="cls-1" d="M21.82,19.72H22a.12.12,0,0,0,.11-.13.13.13,0,0,0-.13-.1,2,2,0,0,1-1.3-.36,2.68,2.68,0,0,0-1.6-.31.12.12,0,0,0-.11.13.12.12,0,0,0,.13.1,2.53,2.53,0,0,1,1.44.26A2.17,2.17,0,0,0,21.82,19.72Z"/><path class="cls-1" d="M18.91,19.26l.07,0a.12.12,0,0,0,0-.16,1.19,1.19,0,0,1,.14-1.44,5,5,0,0,0,.75-1.44.11.11,0,0,0-.07-.14.12.12,0,0,0-.15.07,4.69,4.69,0,0,1-.7,1.36,1.41,1.41,0,0,0-.18,1.69l0,0A.11.11,0,0,0,18.91,19.26Z"/><path class="cls-1" d="M20.19,18a.11.11,0,0,0,.08,0,.14.14,0,0,0,0-.17.93.93,0,0,1-.14-.8,1.55,1.55,0,0,1,.41-.76,3.44,3.44,0,0,0,.69-1.4.11.11,0,0,0-.09-.13.1.1,0,0,0-.13.08,3.36,3.36,0,0,1-.64,1.29,1.86,1.86,0,0,0-.47.88,1.11,1.11,0,0,0,.2,1A.16.16,0,0,0,20.19,18Z"/><path class="cls-1" d="M22.85,18.9l.28,0a.12.12,0,0,0,.09-.14.11.11,0,0,0-.13-.09,1.8,1.8,0,0,1-1.37-.42c-.39-.47-1.59-.38-1.65-.38A.11.11,0,0,0,20,18a.11.11,0,0,0,.12.11c.32,0,1.19,0,1.47.31A2,2,0,0,0,22.85,18.9Z"/><path class="cls-1" d="M21.2,17.17a.07.07,0,0,0,.06,0,.11.11,0,0,0,0-.15,1.12,1.12,0,0,1,.07-.91,2.6,2.6,0,0,1,.41-.64A6,6,0,0,0,22.65,14a.11.11,0,0,0-.06-.15.12.12,0,0,0-.15.06,6.39,6.39,0,0,1-.83,1.41,2.63,2.63,0,0,0-.45.7,1.22,1.22,0,0,0-.06,1.11A.11.11,0,0,0,21.2,17.17Z"/><path class="cls-1" d="M24.1,18.23a.12.12,0,0,0,.11-.09.12.12,0,0,0-.09-.14,2.58,2.58,0,0,1-1.29-.71c-.31-.43-1.59-.3-1.73-.28a.12.12,0,0,0-.11.13.13.13,0,0,0,.13.1c.5-.06,1.35-.06,1.53.19a2.74,2.74,0,0,0,1.43.8Z"/><path class="cls-1" d="M22.52,16.28a.11.11,0,0,0,.08,0,.12.12,0,0,0,0-.16s-.07-.1,0-.38a2.28,2.28,0,0,1,.37-1c.43-.64,1-1.7,1-1.71a.12.12,0,0,0-.05-.16.11.11,0,0,0-.15.05s-.58,1.06-1,1.69a2.49,2.49,0,0,0-.41,1.08.7.7,0,0,0,.11.57A.11.11,0,0,0,22.52,16.28Z"/><path class="cls-1" d="M24.59,17.46a.13.13,0,0,0,.11-.08.11.11,0,0,0-.07-.14,4.65,4.65,0,0,1-1.23-.64,2.58,2.58,0,0,0-1.15-.37.11.11,0,0,0-.13.1.13.13,0,0,0,.1.13,2.41,2.41,0,0,1,1,.31,4.91,4.91,0,0,0,1.31.68Z"/><path class="cls-1" d="M23.41,15.77h0a.11.11,0,0,0,.08-.14,1.11,1.11,0,0,1,0-.37A1.65,1.65,0,0,1,24,14.18a11.47,11.47,0,0,0,1.28-1.56.11.11,0,0,0,0-.16.12.12,0,0,0-.16,0A11.7,11.7,0,0,1,23.86,14a1.75,1.75,0,0,0-.6,1.23,1.46,1.46,0,0,0,0,.43A.11.11,0,0,0,23.41,15.77Z"/><path class="cls-1" d="M25.78,17.17a.12.12,0,0,0,.12-.09.12.12,0,0,0-.09-.14,3.13,3.13,0,0,1-1.14-.68,2.24,2.24,0,0,0-1.41-.63.11.11,0,0,0-.13.1.12.12,0,0,0,.11.13s.94.1,1.25.55a3.36,3.36,0,0,0,1.27.76Z"/><path class="cls-1" d="M26.92,17.16l.06-.1,0-.12a3.65,3.65,0,0,1-1.59-.86,4.29,4.29,0,0,0-.56-.43.11.11,0,0,0-.16,0,.11.11,0,0,0,0,.16,4.79,4.79,0,0,1,.53.41A3.93,3.93,0,0,0,26.92,17.16Z"/><path class="cls-1" d="M25.65,13.46a.12.12,0,0,0,.12-.08,2.22,2.22,0,0,1,.91-1.08.11.11,0,0,0,0-.16.11.11,0,0,0-.16,0,2.4,2.4,0,0,0-1,1.21.12.12,0,0,0,.09.14Z"/><path class="cls-1" d="M27,16.18a3.59,3.59,0,0,0,1.7-.44A3.15,3.15,0,0,1,30,15.31a.11.11,0,0,0,.11-.12.11.11,0,0,0-.12-.11,3.64,3.64,0,0,0-1.36.45,3.32,3.32,0,0,1-1.85.41,2.75,2.75,0,0,1-.74-.16.11.11,0,0,0-.15.06.12.12,0,0,0,.06.15,2.43,2.43,0,0,0,.81.18Z"/><path class="cls-1" d="M27.81,15a.11.11,0,0,0,.07,0,2.9,2.9,0,0,1,1.63-.55.12.12,0,0,0,.12-.11.11.11,0,0,0-.11-.12,3,3,0,0,0-1.78.6.11.11,0,0,0,0,.16A.11.11,0,0,0,27.81,15Z"/><path class="cls-1" d="M28,14.22h0A4.69,4.69,0,0,1,30,13.85a.12.12,0,0,0,.12-.11.11.11,0,0,0-.1-.12,4.64,4.64,0,0,0-2.06.38.12.12,0,0,0-.06.15A.11.11,0,0,0,28,14.22Z"/><path class="cls-1" d="M26.45,13.31a.13.13,0,0,0,.11-.08,1.75,1.75,0,0,1,1.27-1,.12.12,0,0,0,.09-.14.12.12,0,0,0-.14-.09,2,2,0,0,0-1.44,1.11.12.12,0,0,0,.07.15Z"/><path class="cls-1" d="M27.53,13.58a.12.12,0,0,0,.09-.05,1.51,1.51,0,0,1,1.54-.47A.12.12,0,0,0,29.3,13a.11.11,0,0,0-.09-.13,1.7,1.7,0,0,0-1.77.56.11.11,0,0,0,0,.16Z"/><path class="cls-1" d="M78.15,28v5h-14V12.37h13.7v5H70.25v2.79h6.67V25H70.25v3Z"/><path class="cls-1" d="M87.18,17.66v3.47h6.93v5.09H87.18V33H81.09V12.37H95v5.29Z"/><path class="cls-1" d="M104,12.37V33H97.91V12.37Z"/><path class="cls-1" d="M119.07,33l-5.46-9.11V33h-6.09V12.37h6.09v9l5.23-9h6.67l-6.23,10.06L126,33Z"/><path d="M70.78,36.43v8.14H69.35l-3.61-5.38v5.38H64.16V36.43h1.43l3.61,5.38V36.43Z"/><path d="M77.4,43H74.05l-.54,1.62H71.83l2.93-8.14H76.7l2.93,8.14H78Zm-.47-1.4L75.73,38l-1.2,3.53Z"/><path d="M85,37.89h-2v6.68H81.47V37.89h-2V36.43H85Z"/><path d="M87.86,36.43v8.14H86.28V36.43Z"/><path d="M97.48,40.5a4.15,4.15,0,1,1-4.14-4.21A4.08,4.08,0,0,1,97.48,40.5Zm-1.58,0a2.56,2.56,0,1,0-2.56,2.72A2.56,2.56,0,0,0,95.9,40.5Z"/><path d="M105.44,36.43v8.14H104l-3.61-5.38v5.38H98.82V36.43h1.43l3.61,5.38V36.43Z"/><path d="M112.06,43h-3.35l-.55,1.62h-1.67l2.93-8.14h1.93l2.93,8.14h-1.67Zm-.48-1.4L110.38,38l-1.19,3.53Z"/><path d="M120,43.11v1.46h-4.71V36.43h1.57v6.68Z"/><path d="M129.46,43h-3.35l-.55,1.62h-1.68l2.94-8.14h1.93l2.93,8.14H130Zm-.48-1.4L127.78,38l-1.2,3.53Z"/><path d="M138.58,42.21c0,1.27-.91,2.51-3,2.51-1.52,0-2.88-.63-3.28-2l1.53-.47a1.6,1.6,0,0,0,1.74,1.07c.82,0,1.47-.32,1.47-1s-.92-.88-2.21-1.19c-1.64-.41-2.19-1.23-2.19-2.36,0-1.54,1.18-2.49,2.87-2.49a2.66,2.66,0,0,1,2.78,1.92l-1.53.37a1.25,1.25,0,0,0-1.33-.91c-.67,0-1.23.35-1.23,1,0,.92,1,1,1.79,1.22C137.88,40.34,138.58,40.89,138.58,42.21Z"/><path d="M145.6,42.21c0,1.27-.91,2.51-3,2.51-1.52,0-2.88-.63-3.28-2l1.52-.47a1.63,1.63,0,0,0,1.75,1.07c.81,0,1.47-.32,1.47-1s-.92-.88-2.22-1.19c-1.64-.41-2.18-1.23-2.18-2.36,0-1.54,1.17-2.49,2.87-2.49a2.67,2.67,0,0,1,2.78,1.92l-1.53.37a1.26,1.26,0,0,0-1.33-.91c-.67,0-1.23.35-1.23,1,0,.92,1,1,1.79,1.22C144.9,40.34,145.6,40.89,145.6,42.21Z"/><path d="M154.76,40.5a4.15,4.15,0,1,1-4.15-4.21A4.08,4.08,0,0,1,154.76,40.5Zm-1.59,0a2.56,2.56,0,1,0-2.56,2.72A2.55,2.55,0,0,0,153.17,40.5Z"/><path d="M161.88,42.35l1.3.86A4,4,0,0,1,160,44.72a4.22,4.22,0,0,1,0-8.43,4,4,0,0,1,3.23,1.51l-1.3.86a2.42,2.42,0,0,0-1.93-.87,2.72,2.72,0,0,0,0,5.43A2.42,2.42,0,0,0,161.88,42.35Z"/><path d="M165.86,36.43v8.14h-1.57V36.43Z"/><path d="M172.48,43h-3.35l-.55,1.62h-1.67l2.93-8.14h1.93l2.93,8.14H173Zm-.48-1.4L170.8,38l-1.19,3.53Z"/><path d="M180.08,37.89h-2v6.68h-1.58V37.89h-1.95V36.43h5.49Z"/><path d="M182.93,36.43v8.14h-1.57V36.43Z"/><path d="M192.55,40.5a4.14,4.14,0,1,1-4.14-4.21A4.07,4.07,0,0,1,192.55,40.5Zm-1.58,0a2.56,2.56,0,1,0-2.56,2.72A2.55,2.55,0,0,0,191,40.5Z"/><path d="M200.51,36.43v8.14h-1.43l-3.6-5.38v5.38h-1.59V36.43h1.43l3.61,5.38V36.43Z"/><path d="M206.86,36.43v8.14h-1.57V36.43Z"/><path d="M215.11,36.43v8.14h-1.43l-3.61-5.38v5.38h-1.58V36.43h1.43l3.6,5.38V36.43Z"/><path d="M222.52,42.35l1.3.86a4,4,0,0,1-3.23,1.51,4.22,4.22,0,0,1,0-8.43,4,4,0,0,1,3.23,1.51l-1.3.86a2.42,2.42,0,0,0-1.93-.87,2.72,2.72,0,0,0,0,5.43A2.42,2.42,0,0,0,222.52,42.35Z"/><path d="M226.66,43.75l-1.38,2.11-.93-.53L225.44,43Z"/><path d="M237.8,36.43v5.14a3.3,3.3,0,0,1-6.6,0V36.43h1.58v4.93a1.73,1.73,0,1,0,3.44,0V36.43Z"/><path d="M245.17,42.21c0,1.27-.91,2.51-3,2.51-1.53,0-2.89-.63-3.28-2l1.52-.47a1.63,1.63,0,0,0,1.75,1.07c.81,0,1.46-.32,1.46-1s-.92-.88-2.21-1.19c-1.64-.41-2.19-1.23-2.19-2.36,0-1.54,1.18-2.49,2.88-2.49a2.67,2.67,0,0,1,2.78,1.92l-1.54.37a1.24,1.24,0,0,0-1.32-.91c-.68,0-1.24.35-1.24,1,0,.92,1,1,1.8,1.22C244.47,40.34,245.17,40.89,245.17,42.21Z"/><path d="M251.32,43H248l-.55,1.62h-1.67l2.93-8.14h1.93l2.93,8.14h-1.67Zm-.48-1.4L249.65,38l-1.2,3.53Z"/></svg>